<svg xmlns="http://www.w3.org/2000/svg" width="513.139" height="1013.962" viewBox="0 0 513.139 1013.962"><path fill="#DDD" d="M112.505 207.5h171v22h-171zm0 36h171v22h-171zm0 39h171v21h-171z"/><path fill="#B5B5B5" d="M317.505 203.5h166v115h-166z"/><path fill="#DDD" d="M112.505 352.5h171v20h-171zm0 35h171v21h-171zm0 39h171v21h-171z"/><path fill="#B5B5B5" d="M317.505 348.5h166v113h-166z"/><path fill="#DDD" d="M112.505 715.5h171v21h-171zm0 36h171v22h-171zm0 39h171v21h-171z"/><path fill="#B5B5B5" d="M317.505 711.5h166v115h-166z"/><path fill="#DDD" d="M112.505 862.5h171v20h-171zm0 35h171v21h-171zm0 39h171v21h-171z"/><path fill="#B5B5B5" d="M317.505 858.5h166v113h-166z"/><path fill="#88DCE3" d="M113.505 488.5h370v196h-370z"/><path fill="#DDD" d="M25.505 155.5h465v25h-465zm0-42h465v25h-465zm-16-103h497v73h-497z"/><path fill="none" stroke="#DDD" stroke-width="3" stroke-linejoin="round" stroke-miterlimit="10" d="M9.005 10h498v996h-498z"/><path fill="#FFF" d="M25.505 39.5h465v33h-465z"/><circle fill="#A56060" cx="483.184" cy="22.9" r="7.697"/><circle fill="#B5B5B5" cx="463.087" cy="22.9" r="7.697"/><circle fill="#B5B5B5" cx="442.99" cy="22.9" r="7.697"/></svg>