<svg xmlns="http://www.w3.org/2000/svg" width="166.754" height="165.577" viewBox="0 0 166.754 165.577"><path fill="#88DCE3" d="M-.152-.173h167v166h-167z"/><path fill="#E2E2E2" d="M83.442 64.468c-10.036 0-18.17 8.135-18.17 18.17 0 10.035 8.134 18.17 18.17 18.17 10.035 0 18.17-8.135 18.17-18.17 0-10.035-8.134-18.17-18.17-18.17zm-6.594 27.024V73.784l15.336 8.854-15.336 8.854z"/><path fill="#333" d="M158.219 19.222l-2.004-3.471c-.815-1.328-1.328-2.189-1.817-3.098h-.047c-.442.909-.884 1.747-1.699 3.12l-1.888 3.449h-2.329l4.799-7.944-4.611-7.758h2.353l2.071 3.682a52.907 52.907 0 0 1 1.445 2.656h.07c.441-.931.838-1.654 1.421-2.656l2.143-3.682h2.33l-4.777 7.643 4.895 8.06h-2.355z"/></svg>