<svg xmlns="http://www.w3.org/2000/svg" width="521.634" height="1075.5" viewBox="0 0 521.634 1075.5"><path fill="#B5B5B5" d="M31 182.5h465v249H31z"/><path fill="#DDD" d="M31 442.5h465v24H31zm0 47h465v24H31zm0 368h465v25H31zm0 165h465v25H31zm0-477h220v25H31zm0 154h220v25H31zm247-154h219v25H278zm-247 264h220v24H31zm247 0h219v24H278zm-247 169h220v24H31zm247 0h219v24H278z"/><path fill="none" stroke="#DDD" stroke-width="3" stroke-miterlimit="10" d="M249.5 590.5V616h-220v-25.5m466 0V616h-219v-25.5m-27 56V671h-220v-24.5m466 103V775h-466v-25.5m466-103V671h-219v-24.5"/><path fill="#DDD" d="M31 141.5h465v25H31zm0-37h465v25H31zm-16-93h497v73H15z"/><path opacity=".75" fill="#FFF" d="M288.97 304.442l-47.677-27.683a2.504 2.504 0 0 0-2.477-.004c-.758.436-1.256 1.242-1.256 2.115v55.364c0 .873.498 1.681 1.256 2.116.377.217.813.326 1.234.326.424 0 .856-.111 1.234-.33l47.682-27.681a2.443 2.443 0 0 0 .004-4.223zm-46.656-21.329l40.033 23.119-36.466-19.399v39.879l30.349-16.284-33.916 19.566v-46.881z"/><path fill="#B5B5B5" d="M394.535 932.935c-5.415 5.415-11.688 10.594-14.166 8.115-3.553-3.548-5.74-6.642-13.564-.352-7.826 6.291-1.816 10.482 1.624 13.924 3.97 3.965 18.761.207 33.378-14.411 14.623-14.621 18.384-29.415 14.412-33.386-3.441-3.438-7.63-9.446-13.92-1.62-6.29 7.823-3.201 10.011.352 13.563 2.478 2.48-2.701 8.749-8.116 14.167zm-281.377-21.011c1.671.896 24.794 13.319 25.656 13.78.861.464 1.977.684 3.1.684 1.122 0 2.238-.22 3.1-.684.862-.461 23.984-12.881 25.655-13.78 1.67-.898 3.251-3.715.181-3.715h-57.872c-3.07 0-1.49 2.817.18 3.715zm58.219 6.842c-1.896.989-25.201 13.175-26.363 13.78-1.162.607-1.978.684-3.1.684-1.123 0-1.938-.076-3.1-.684-1.163-.605-24.464-12.791-26.364-13.78-1.333-.699-1.323.119-1.323.752v25.091c0 1.436 1.911 3.28 3.395 3.28h54.784c1.483 0 3.395-1.845 3.395-3.28v-25.091c-.001-.633.012-1.451-1.324-.752zm0 0"/><path fill="none" stroke="#DDD" stroke-width="3" stroke-linejoin="round" stroke-miterlimit="10" d="M14.5 11h498v1057h-498z"/><path fill="#FFF" d="M31 40.5h465v33H31z"/><circle fill="#A56060" cx="488.678" cy="23.9" r="7.697"/><circle fill="#B5B5B5" cx="468.582" cy="23.9" r="7.697"/><circle fill="#B5B5B5" cx="448.485" cy="23.9" r="7.697"/></svg>