<svg xmlns="http://www.w3.org/2000/svg" width="196.867" height="116.591" viewBox="0 0 196.867 116.591"><path fill="#3F3F3F" d="M194.773 112.089L176.72 90.058l-1.31.031c.949-.603 1.575-1.614 1.575-2.77l-4.957-82.112c0-1.843-1.585-3.207-3.54-3.207H27.772c-1.955 0-3.54 1.372-3.54 3.214l-.426 8.56c-.215-.462-.669-.952-1.631-.952-1.853 0-1.962 2.325-1.962 2.325l-3.831 60.637 1.589 5.698s0 1.4.467 1.4.653-1.402.653-1.402l1.611-5.088-.542 10.942c0 1.295.785 2.422 1.93 2.98l-1.723.002-18.29 22.105s-.944 1.573 2.124 1.573h188.801c.001 0 3.069-.135 1.771-1.905zM108.485 2.892a1.33 1.33 0 0 1 1.328 1.328 1.329 1.329 0 0 1-2.656 0c0-.734.595-1.328 1.328-1.328zm-15.93 0a1.328 1.328 0 1 1-.001 2.655 1.328 1.328 0 0 1 .001-2.655zm-5.31 0a1.33 1.33 0 0 1 1.328 1.328 1.329 1.329 0 0 1-2.656 0c0-.734.595-1.328 1.328-1.328zm-60.181 3.66h141.778l4.955 80.646H22.993l4.071-80.646zm104.078 104.19H65.828a.376.376 0 0 1-.354-.515l1.947-6.417c.061-.187.213-.222.409-.222h61.624c.195 0 .376-.074.447.164l1.594 6.56a.374.374 0 0 1-.353.43z"/><path fill="#C50E14" d="M169.624 19H26.437l.5-10h142.076z"/><path fill="#B5B5B5" d="M59.003 27h29v14h-29zm0 51h77v8h-77z"/><path fill="#DDD" d="M59.003 22h29v1h-29zm0 2h29v2h-29zm0 18h29v2h-29zm0 6h18v1h-18zm0-3h4v2h-4zm0 4h18v2h-18zm0 2h18v1h-18zm0 3h18v1h-18zm0 1h18v2h-18zm0 2h18v1h-18z"/><path fill="#B5B5B5" d="M78.003 48h10v10h-10z"/><path fill="#DDD" d="M59.003 63h18v1h-18zm0-2h4v1h-4zm0 3h18v2h-18zm0 2h18v2h-18zm0 4h18v1h-18zm0 1h18v1h-18zm0 3h18v2h-18z"/><path fill="#B5B5B5" d="M78.003 63h10v13h-10z"/><path fill="#DDD" d="M91.003 43h8v1h-8zm0 1h8v1h-8zm0 2h8v2h-8zm0-24h19v1h-19zm0 2h19v2h-19zm0 3h19v1h-19z"/><path fill="#B5B5B5" d="M101.003 43h8v5h-8z"/><path fill="#DDD" d="M91.003 51h8v1h-8zm0 2h8v1h-8zm0 2h8v1h-8z"/><path fill="#B5B5B5" d="M101.003 51h8v6h-8z"/><path fill="#DDD" d="M91.003 62h8v1h-8zm0 2h8v1h-8z"/><path fill="#B5B5B5" d="M101.003 60h8v6h-8z"/><path fill="#DDD" d="M91.003 70h8v1h-8zm0 1h8v1h-8zm0 3h8v1h-8z"/><path fill="#B5B5B5" d="M101.003 68h8v8h-8zm-10-39h18v10h-18zm22-7h23v20h-23zm0 22h23v33h-23z"/><path d="M105.819 11.806c-.019-.023.01-.077.063-.128.082-.078.637-.637.858-.859.057-.056.245-.169.431.087.224.313.021.465 0 .474-.297.117-1.227.422-1.227.422s-.099.034-.125.004zm-24.347-1.139h1.283v4.291h-1.283zm4.574 2.329c-.026-.544-.359-1.133-1.59-1.148-.914-.012-1.193.446-1.281.714a.422.422 0 0 0-.034.147l-.004.04c0 .258.205.467.458.467s.458-.209.458-.467a.468.468 0 0 0-.101-.29s-.172-.225.392-.177c.453.039.511.524.515.714v.573a1.266 1.266 0 0 0-.806-.273c-.614 0-1.111.388-1.111.869s.497.869 1.111.869c.317 0 .603-.105.806-.273v.198h1.189v-1.962h-.002zm-1.993 1.78c-.339 0-.612-.256-.612-.572 0-.314.273-.571.612-.571s.613.256.613.571c0 .316-.274.572-.613.572zm5.778-2.769c-.99 0-1.791.708-1.791 1.578 0 .872.801 1.578 1.791 1.578.989 0 1.792-.706 1.792-1.578 0-.87-.803-1.578-1.792-1.578zm0 2.812c-.451 0-.814-.553-.814-1.234s.363-1.233.814-1.233.815.552.815 1.233-.364 1.234-.815 1.234zm16.613-2.812c-.989 0-1.791.708-1.791 1.578 0 .872.802 1.578 1.791 1.578s1.791-.706 1.791-1.578c0-.87-.801-1.578-1.791-1.578zm0 2.812c-.45 0-.816-.553-.816-1.234s.366-1.233.816-1.233c.449 0 .815.552.815 1.233s-.365 1.234-.815 1.234zM94.45 12.051a1.96 1.96 0 0 0-1.101.331v-.502H91.87v5.696h1.479v-2.745c.304.207.685.332 1.101.332.986 0 1.786-.697 1.786-1.556 0-.86-.799-1.556-1.786-1.556zm-.553 2.725a.803.803 0 0 1-.548-.229v-1.775a.806.806 0 0 1 .548-.228c.504 0 .912.5.912 1.115.001.617-.408 1.117-.912 1.117zm2.522-2.864h1.383v3.014h-1.383zm1.4-.934c.128.31-.178.543-.587.692-.462.169-.825.05-.884-.141-.054-.174.133-.462.56-.652.398-.176.801-.165.911.101zm5.165.934h1.384v3.014h-1.384zm1.401-.934c.128.31-.178.543-.586.692-.462.169-.825.05-.884-.141-.054-.174.133-.462.56-.652.397-.176.799-.165.91.101zm-2.046 1.764c-.045-.562-.607-.595-1.285-.605-.568-.008-1.211.288-1.471.42v-.645H98.2v3.014h1.383V13.07c.15-.149.43-.379.773-.418.525-.059.594.423.6.607v1.667h1.385v-2.184h-.002zm10.379 0c-.044-.562-.606-.595-1.285-.605-.566-.008-1.211.288-1.47.42v-.645h-1.384v3.014h1.384V13.07c.149-.149.429-.379.772-.418.525-.059.595.423.602.607v1.667h1.383v-2.184h-.002z" fill="#FFF"/></svg>