<svg xmlns="http://www.w3.org/2000/svg" width="174.83" height="60.446" viewBox="0 0 174.83 60.446"><g fill="#333"><path d="M40.655 14.152L29.348 18.01l-.598-.736 8.207-8.211c1.322-1.322 3.979-.992 4.926.615.86 1.441.524 3.875-1.228 4.474m-6.506 6.703c-8.844 0-17.096 6.701-17.096 15.898 0 9.467 8.076 15.449 17.096 15.449 8.771 0 17.539-5.037 17.539-14.689 0-9.775-8.051-16.658-17.539-16.658zm0 28.502c-4.645 0-8.84-5.848-8.84-12.602 0-6.744 4.195-12.6 8.84-12.6 5.242 0 8.998 5.855 8.998 12.6 0 6.755-3.754 12.602-8.998 12.602zm112.275-16.853c-1.258 0-2.348.398-3.27 1.195-1.102.953-1.652 2.289-1.652 4.008 0 1.656.508 2.965 1.523 3.928.924.875 2.063 1.311 3.424 1.311 1.334 0 2.455-.426 3.361-1.277 1.023-.961 1.535-2.281 1.535-3.961 0-1.453-.426-2.668-1.277-3.645-.905-1.04-2.122-1.559-3.644-1.559zm-58.209 0c-1.258 0-2.348.398-3.27 1.195-1.102.953-1.654 2.289-1.654 4.008 0 1.656.51 2.965 1.525 3.928.92.875 2.061 1.311 3.422 1.311 1.334 0 2.457-.426 3.363-1.277 1.021-.961 1.533-2.281 1.533-3.961 0-1.453-.424-2.668-1.275-3.645-.907-1.04-2.12-1.559-3.644-1.559z"/><path d="M51.786 25.41c3.283 2.885 5.363 7.105 5.363 12.064 0 5.305-2.654 9.291-6.496 11.6h107.123V25.41H51.786zm11.912 19.047h-1.732v-3.463h1.732v3.463zm6.494-3.012c.922 1.018 2.078 1.525 3.469 1.525.969 0 1.816-.1 2.541-.543.775-.477 1.385-1.432 1.83-2.01h1.852c-.549 1.154-1.377 2.385-2.486 3.156-1.063.744-2.262 1.051-3.596 1.051-1.049 0-2.061-.268-3.037-.744a6.443 6.443 0 0 1-2.613-2.254c-.734-1.094-1.102-2.383-1.102-3.852 0-1.055.246-2.09.738-3.098.547-1.117 1.289-2.002 2.227-2.65 1.07-.744 2.309-1.115 3.715-1.115 1.258 0 2.328.229 3.211.742 1.172.689 2.168 1.838 2.99 3.568h-1.9c-1.047-1.73-2.422-2.746-4.125-2.746-1.547 0-2.801.547-3.762 1.619-.891.992-1.336 2.199-1.336 3.605.001 1.479.46 2.731 1.384 3.746zm22.781 1.022c-1.328 1.396-3.016 2.096-5.063 2.096-1.586 0-3.031-.658-4.336-1.979-1.361-1.377-2.039-2.98-2.039-4.816 0-1.025.238-2.041.715-3.049.537-1.133 1.273-2.027 2.201-2.684 1.086-.766 2.355-1.146 3.811-1.146 1.631 0 3.107.602 4.428 1.805 1.455 1.328 2.18 2.975 2.18 4.943.003 1.892-.631 3.5-1.897 4.83zm23.824 1.99h-1.732V36.93c0-1.42-.361-2.492-.979-3.213-.617-.723-1.546-1.082-2.734-1.082-1.242 0-2.145.318-2.713.959-.721.811-1.074 2.252-1.074 4.32v6.543h-1.732v-7.48c0-1.342-.166-2.35-.611-3.02-.584-.881-1.561-1.322-2.982-1.322-.633 0-1.157.082-1.604.244a3.08 3.08 0 0 0-1.588 1.311c-.469.781-.719 1.863-.719 3.244v7.023h-1.73V31.182h1.73v1.557c1.154-1.117 2.486-1.557 4.08-1.557h.385c.947 0 1.783.152 2.51.574a4.596 4.596 0 0 1 1.629 1.588 5.465 5.465 0 0 1 1.863-1.633 5.727 5.727 0 0 1 2.777-.723c1.408 0 2.68.434 3.563 1.309 1.021 1.016 1.664 2.508 1.664 4.486v7.674h-.003zm5.194 0h-1.73v-3.463h1.73v3.463zm6.408-3.012c.924 1.018 2.08 1.525 3.469 1.525.971 0 1.816-.1 2.543-.543.773-.477 1.383-1.432 1.83-2.01h1.852c-.547 1.154-1.375 2.385-2.486 3.156-1.063.744-2.262 1.051-3.598 1.051-1.045 0-2.059-.268-3.035-.744a6.463 6.463 0 0 1-2.613-2.254c-.734-1.094-1.102-2.383-1.102-3.852 0-1.055.246-2.09.739-3.098.546-1.117 1.288-2.002 2.226-2.65 1.07-.744 2.309-1.115 3.717-1.115 1.258 0 2.326.229 3.209.742 1.174.689 2.17 1.838 2.99 3.568h-1.898c-1.047-1.73-2.422-2.746-4.125-2.746-1.547 0-2.801.547-3.762 1.619-.891.992-1.336 2.199-1.336 3.605-.001 1.479.458 2.731 1.38 3.746zm22.783 1.022c-1.33 1.396-3.016 2.096-5.063 2.096-1.586 0-3.033-.658-4.338-1.979-1.359-1.377-2.037-2.98-2.037-4.816 0-1.025.238-2.041.715-3.049.54-1.133 1.271-2.027 2.201-2.684 1.087-.766 2.355-1.146 3.811-1.146 1.631 0 3.107.602 4.428 1.805 1.453 1.328 2.18 2.975 2.18 4.943.003 1.892-.633 3.5-1.897 4.83z"/></g></svg>