<svg xmlns="http://www.w3.org/2000/svg" width="84.151" height="18.488" viewBox="0 0 84.151 18.488"><g fill="#333"><path d="M56.312 17.357h-6.387a4.456 4.456 0 0 1-4.443-4.442V6.108c0-2.443 2-4.443 4.443-4.443h6.387c2.444 0 4.443 2 4.443 4.443v6.806a4.456 4.456 0 0 1-4.443 4.443m0-1.173a3.25 3.25 0 0 0 2.309-.962c.619-.62.961-1.439.961-2.307V6.108a3.25 3.25 0 0 0-.961-2.308 3.251 3.251 0 0 0-2.309-.96h-6.387c-.868 0-1.688.342-2.309.96-.619.62-.96 1.44-.96 2.308v6.806c0 .868.341 1.688.96 2.307.62.62 1.44.962 2.309.962h6.387z"/><path d="M57.348 9.452a4.207 4.207 0 1 1-8.413-.001 4.207 4.207 0 0 1 8.413.001m-4.226-2.753a2.755 2.755 0 1 0 0 5.51 2.755 2.755 0 0 0 0-5.51m5.289-1.519a.997.997 0 1 1-1.993-.001.997.997 0 0 1 1.993.001"/></g><path fill="#333" d="M15.054 1.821H4.9a2.91 2.91 0 0 0-2.907 2.907v10.155A2.911 2.911 0 0 0 4.9 17.79h4.658v-6.604H8.193V8.91h1.365V7.543c0-1.857.771-2.961 2.961-2.961h1.823v2.276h-1.139c-.854 0-.91.318-.91.912l-.003 1.14h2.064l-.24 2.276H12.29v6.604h2.764a2.911 2.911 0 0 0 2.908-2.907V4.728a2.911 2.911 0 0 0-2.908-2.907zm21.976-.335H26.876a2.91 2.91 0 0 0-2.907 2.907v10.155a2.91 2.91 0 0 0 2.907 2.907H37.03a2.912 2.912 0 0 0 2.908-2.907V4.393a2.911 2.911 0 0 0-2.908-2.907zm-.812 5.797c.004.095.006.19.006.286 0 2.907-2.212 6.259-6.259 6.259a6.238 6.238 0 0 1-3.373-.988 4.427 4.427 0 0 0 3.257-.91 2.205 2.205 0 0 1-2.056-1.529 2.26 2.26 0 0 0 .994-.038 2.202 2.202 0 0 1-1.766-2.157v-.027c.297.165.636.263.996.275a2.2 2.2 0 0 1-.68-2.937 6.238 6.238 0 0 0 4.534 2.298 2.2 2.2 0 0 1 3.748-2.005 4.37 4.37 0 0 0 1.397-.535 2.2 2.2 0 0 1-.969 1.217 4.382 4.382 0 0 0 1.265-.346 4.462 4.462 0 0 1-1.094 1.137zm44.081-5.776H70.146a2.91 2.91 0 0 0-2.908 2.907v10.155a2.91 2.91 0 0 0 2.908 2.906h10.153a2.91 2.91 0 0 0 2.908-2.906V4.414a2.912 2.912 0 0 0-2.908-2.907zm-7.07 11.969V5.504l5.999 3.987-5.999 3.985z"/></svg>