<svg xmlns="http://www.w3.org/2000/svg" xmlns:xlink="http://www.w3.org/1999/xlink" width="29.979" height="59.125" viewBox="0 0 29.979 59.125"><path fill="#3F3F3F" d="M28.139 18.083a.194.194 0 0 0-.195.194V4.642c0-1.711-1.357-3.046-3.074-3.046H5.17c-1.716 0-3.241 1.335-3.241 3.046v6.357c0-.048-.047-.079-.11-.079-.106 0-.149.086-.149.193v7.048c0 .107.043.193.149.193.063 0 .11-.031.11-.079v2.868c0-.047-.047-.078-.11-.078-.106 0-.149.087-.149.193v3.757c0 .106.043.193.149.193.063 0 .11-.031.11-.079v29.253c0 1.711 1.525 3.144 3.241 3.144h19.7c1.717 0 3.074-1.432 3.074-3.144v-32.35c0 .107.088.193.195.193s.195-.086.195-.193v-3.756a.195.195 0 0 0-.195-.193zM22.59 2.436zm-2.525 0a.752.752 0 1 1 0 1.505.752.752 0 0 1 0-1.505zm-7.283.46h4.841c.15 0 .271.11.271.26 0 .149-.121.26-.271.26h-4.841c-.149 0-.272-.11-.272-.26 0-.15.123-.26.272-.26zm14.772 49.431c0 1.543-.733 2.469-2.399 2.469H4.882c-1.665 0-2.563-.926-2.563-2.469V6.74c0-1.543.898-2.414 2.563-2.414h20.272c1.666 0 2.399.87 2.399 2.414v45.587z"/><defs><path id="a" d="M27.5 52.647c0 1.358-.763 2.259-2.253 2.259H4.65c-1.489 0-2.341-1.432-2.341-2.79l.019-44.833c-.141-1.828.548-2.87 2.203-2.969l21.029.106c1.328 0 1.939 1.037 1.939 2.395v45.832z"/></defs><clipPath id="b"><use xlink:href="#a" overflow="visible"/></clipPath><path clip-path="url(#b)" fill="#C50E14" d="M8.514 7.262H2.109l.287-1.906h6.118z"/><path clip-path="url(#b)" fill="#DDD" d="M4.716 8.245h20.886v.953H4.716zm0 1.959h20.886v.953H4.716zm0 1.822h20.886v1.219H4.716zm0 15.246h20.886v.953H4.716z"/><path clip-path="url(#b)" fill="#B5B5B5" d="M4.716 13.932h20.886V26.32H4.716z"/><g clip-path="url(#b)" fill="#700810"><path d="M6.67 5.926c-.007-.009.002-.026.019-.044.027-.026.215-.214.289-.29.019-.018.082-.057.145.03.074.105.008.156 0 .16-.1.04-.412.142-.412.142s-.033.013-.041.002zm.209.068c-.332 0-.602.238-.602.532 0 .293.27.531.602.531s.601-.238.601-.531c-.001-.295-.269-.532-.601-.532zm0 .946c-.151 0-.273-.186-.273-.415 0-.23.122-.416.273-.416s.273.186.273.416c0 .229-.122.415-.273.415z"/></g><path clip-path="url(#b)" fill="#DDD" d="M4.716 31.084h11.392v.953H4.716zm0-1.906h1.897v.953H4.716zm0 11.771h1.897v.953H4.716zm0-8.308h11.392v.78H4.716zm0 1.426h11.392v.828H4.716zm0 1.531h11.392v.953H4.716zm0 1.537h11.392v.953H4.716zm0 1.572h11.392v.953H4.716z"/><path clip-path="url(#b)" fill="#B5B5B5" d="M17.057 31.084h8.545v8.576h-8.545z"/><path clip-path="url(#b)" fill="#DDD" d="M4.716 42.519h11.392v.953H4.716zm0 9.472h1.897v.953H4.716zm0 1.57h11.392v.953H4.716zm0-9.429h11.392v.953H4.716zm0 1.453h11.392v.953H4.716zm0 1.698h11.392v.953H4.716zm0 1.39h11.392v.927H4.716zm0 1.469h11.392v.953H4.716z"/><path clip-path="url(#b)" fill="#B5B5B5" d="M17.057 42.519h8.545v8.576h-8.545zm0 11.02h8.545v1.285h-8.545z"/><path clip-path="url(#b)" fill="#FFF" d="M3.885 5.674h1.572v.313H3.885zm0 1h1.572v.313H3.885zm0-.5h1.572v.313H3.885z"/></svg>