<svg xmlns="http://www.w3.org/2000/svg" width="121.5" height="24.375" viewBox="0 0 121.5 24.375"><g fill="#333"><path d="M81.213 24.033h-9.518c-3.642 0-6.622-2.979-6.622-6.621V7.27c0-3.642 2.98-6.622 6.622-6.622h9.518c3.643 0 6.622 2.98 6.622 6.622v10.143c0 3.641-2.98 6.62-6.622 6.62m0-1.749a4.838 4.838 0 0 0 3.44-1.433 4.84 4.84 0 0 0 1.432-3.439V7.27a4.837 4.837 0 0 0-1.432-3.439 4.844 4.844 0 0 0-3.44-1.433h-9.518c-1.295 0-2.517.51-3.44 1.433a4.84 4.84 0 0 0-1.432 3.439v10.143c0 1.294.509 2.516 1.432 3.439a4.838 4.838 0 0 0 3.44 1.433h9.518z"/><path d="M82.757 12.251a6.268 6.268 0 1 1-12.537 0 6.268 6.268 0 0 1 12.537 0M76.46 8.15a4.105 4.105 0 1 0-.001 8.209 4.105 4.105 0 0 0 .001-8.209m7.882-2.264a1.485 1.485 0 1 1-2.965-.001 1.485 1.485 0 0 1 2.965.001"/></g><path fill="#333" d="M19.728.441H4.596A4.338 4.338 0 0 0 .263 4.773v15.134a4.337 4.337 0 0 0 4.333 4.332h6.941v-9.842H9.503v-3.393h2.034V8.969c0-2.768 1.149-4.413 4.413-4.413h2.717v3.393H16.97c-1.271 0-1.356.475-1.356 1.357l-.005 1.699h3.077l-.359 3.393h-2.718v9.842h4.119a4.338 4.338 0 0 0 4.334-4.332V4.773A4.34 4.34 0 0 0 19.728.441zm32.75 0H37.346a4.338 4.338 0 0 0-4.333 4.332v15.134a4.337 4.337 0 0 0 4.333 4.332h15.132a4.338 4.338 0 0 0 4.334-4.332V4.773A4.34 4.34 0 0 0 52.478.441zm-1.211 8.64c.006.141.009.283.009.426 0 4.332-3.296 9.328-9.327 9.328a9.277 9.277 0 0 1-5.026-1.474c.257.03.518.045.782.045 1.536 0 2.95-.523 4.072-1.401a3.282 3.282 0 0 1-3.063-2.278 3.293 3.293 0 0 0 1.48-.055 3.282 3.282 0 0 1-2.631-3.216l.001-.04a3.25 3.25 0 0 0 1.484.41 3.278 3.278 0 0 1-1.014-4.376 9.305 9.305 0 0 0 6.757 3.425 3.279 3.279 0 0 1 5.587-2.989 6.554 6.554 0 0 0 2.083-.797 3.28 3.28 0 0 1-1.443 1.813 6.514 6.514 0 0 0 1.884-.515 6.7 6.7 0 0 1-1.635 1.694zm65.694-8.64h-15.132a4.338 4.338 0 0 0-4.333 4.332v15.134a4.337 4.337 0 0 0 4.333 4.332h15.132a4.338 4.338 0 0 0 4.334-4.332V4.773a4.34 4.34 0 0 0-4.334-4.332zM106.425 18.28V6.399l8.94 5.94-8.94 5.941z"/></svg>