<svg xmlns="http://www.w3.org/2000/svg" width="64.607" height="92.017" viewBox="0 0 64.607 92.017"><path fill="#3F3F3F" d="M60.244 1.804H4.601c-1.553 0-2.795 1.189-2.795 2.746v82.608c0 1.557 1.242 2.836 2.795 2.836h55.644a2.842 2.842 0 0 0 2.827-2.836V4.55c-.001-1.557-1.274-2.746-2.828-2.746zM32.39 4.315a.74.74 0 1 1 0 1.48.74.74 0 0 1 0-1.48zm-.019 84.191a1.798 1.798 0 1 1 .001-3.595 1.798 1.798 0 0 1-.001 3.595zm28.098-5.146H4.017V8.177h56.452V83.36z"/><path fill="#DDD" d="M7.003 14h51v3h-51zm0 5h51v2h-51zm0 5h51v3h-51zm0 35h51v3h-51z"/><path fill="#B5B5B5" d="M7.003 29h51v28h-51z"/><path fill="#DDD" d="M7.003 68h28v2h-28zm0-3h7v2h-7zm0 6h28v3h-28zm0 3h28v3h-28zm0 4h28v3h-28z"/><path fill="#B5B5B5" d="M38.003 68h19v14h-19z"/><path fill="#C50E14" d="M4.003 9h9v4h-9z"/><path fill="#FFF" d="M6.928 9.85h1.95v.459h-1.95zm0 1h1.95v.459h-1.95zm0 1h1.95v.459h-1.95z"/><path d="M10.199 10.312c-.013-.016.006-.05.041-.084.054-.051.42-.419.565-.565.037-.037.161-.112.283.058.148.205.016.306 0 .312-.195.077-.809.277-.809.277s-.063.023-.08.002zm.411.133c-.652 0-1.18.465-1.18 1.039s.527 1.04 1.18 1.04 1.181-.466 1.181-1.04-.528-1.039-1.181-1.039zm0 1.853c-.297 0-.537-.364-.537-.813 0-.449.24-.813.537-.813s.537.364.537.813c0 .449-.24.813-.537.813z" fill="#700810"/></svg>