<?xml version="1.0" encoding="utf-8"?>
<!-- Generator: Adobe Illustrator 16.0.0, SVG Export Plug-In . SVG Version: 6.00 Build 0)  -->
<!DOCTYPE svg PUBLIC "-//W3C//DTD SVG 1.1//EN" "http://www.w3.org/Graphics/SVG/1.1/DTD/svg11.dtd">
<svg version="1.1" xmlns="http://www.w3.org/2000/svg" xmlns:xlink="http://www.w3.org/1999/xlink" x="0px" y="0px"
	 width="513.139px" height="1013.962px" viewBox="0 0 513.139 1013.962" enable-background="new 0 0 513.139 1013.962"
	 xml:space="preserve">
<g id="Soporte">
</g>
<g id="Imagenes">
</g>
<g id="Vectores">
	<rect x="112.505" y="207.5" fill="#DDDDDD" width="171" height="22"/>
	<rect x="112.505" y="243.5" fill="#DDDDDD" width="171" height="22"/>
	<rect x="112.505" y="282.5" fill="#DDDDDD" width="171" height="21"/>
	<rect x="317.505" y="203.5" fill="#B5B5B5" width="166" height="115"/>
	<rect x="112.505" y="352.5" fill="#DDDDDD" width="171" height="20"/>
	<rect x="112.505" y="387.5" fill="#DDDDDD" width="171" height="21"/>
	<rect x="112.505" y="426.5" fill="#DDDDDD" width="171" height="21"/>
	<rect x="317.505" y="348.5" fill="#B5B5B5" width="166" height="113"/>
	<rect x="112.505" y="715.5" fill="#DDDDDD" width="171" height="21"/>
	<rect x="112.505" y="751.5" fill="#DDDDDD" width="171" height="22"/>
	<rect x="112.505" y="790.5" fill="#DDDDDD" width="171" height="21"/>
	<rect x="317.505" y="711.5" fill="#B5B5B5" width="166" height="115"/>
	<rect x="112.505" y="862.5" fill="#DDDDDD" width="171" height="20"/>
	<rect x="112.505" y="897.5" fill="#DDDDDD" width="171" height="21"/>
	<rect x="112.505" y="936.5" fill="#DDDDDD" width="171" height="21"/>
	<rect x="317.505" y="858.5" fill="#B5B5B5" width="166" height="113"/>
	<rect x="113.505" y="488.5" fill="#88DCE3" width="370" height="196"/>
	<rect x="25.505" y="155.5" fill="#DDDDDD" width="465" height="25"/>
	<rect x="25.505" y="113.5" fill="#DDDDDD" width="465" height="25"/>
	<rect x="9.505" y="10.5" fill="#DDDDDD" width="497" height="73"/>
	
		<rect x="9.005" y="10" fill="none" stroke="#DDDDDD" stroke-width="3" stroke-linejoin="round" stroke-miterlimit="10" width="498" height="996"/>
	<rect x="25.505" y="39.5" fill="#FFFFFF" width="465" height="33"/>
	<circle fill="#A56060" cx="483.184" cy="22.9" r="7.697"/>
	<circle fill="#B5B5B5" cx="463.087" cy="22.9" r="7.697"/>
	<circle fill="#B5B5B5" cx="442.99" cy="22.9" r="7.697"/>
</g>
<g id="TXT">
</g>
<g id="Guias">
</g>
</svg>
