<?xml version="1.0" encoding="utf-8"?>
<!-- Generator: Adobe Illustrator 16.0.0, SVG Export Plug-In . SVG Version: 6.00 Build 0)  -->
<!DOCTYPE svg PUBLIC "-//W3C//DTD SVG 1.1//EN" "http://www.w3.org/Graphics/SVG/1.1/DTD/svg11.dtd">
<svg version="1.1" xmlns="http://www.w3.org/2000/svg" xmlns:xlink="http://www.w3.org/1999/xlink" x="0px" y="0px"
	 width="166.754px" height="165.577px" viewBox="0 0 166.754 165.577" enable-background="new 0 0 166.754 165.577"
	 xml:space="preserve">
<g id="Soporte">
</g>
<g id="Imagenes">
</g>
<g id="Vectores">
	<g>
		<rect x="-0.152" y="-0.173" fill="#88DCE3" width="167" height="166"/>
		<path fill="#E2E2E2" d="M83.442,64.468c-10.036,0-18.17,8.135-18.17,18.17c0,10.035,8.134,18.17,18.17,18.17
			c10.035,0,18.17-8.135,18.17-18.17C101.612,72.603,93.478,64.468,83.442,64.468z M76.848,91.492V73.784l15.336,8.854
			L76.848,91.492z"/>
		<g>
			<path fill="#333333" d="M158.219,19.222l-2.004-3.471c-0.815-1.328-1.328-2.189-1.817-3.098h-0.047
				c-0.442,0.909-0.884,1.747-1.699,3.12l-1.888,3.449h-2.329l4.799-7.944l-4.611-7.758h2.353l2.071,3.682
				c0.585,1.024,1.026,1.817,1.445,2.656h0.07c0.441-0.931,0.838-1.654,1.421-2.656l2.143-3.682h2.33l-4.777,7.643l4.895,8.06
				H158.219z"/>
		</g>
	</g>
</g>
<g id="TXT">
</g>
<g id="Guias">
</g>
</svg>
