<?xml version="1.0" encoding="utf-8"?>
<!-- Generator: Adobe Illustrator 16.0.0, SVG Export Plug-In . SVG Version: 6.00 Build 0)  -->
<!DOCTYPE svg PUBLIC "-//W3C//DTD SVG 1.1//EN" "http://www.w3.org/Graphics/SVG/1.1/DTD/svg11.dtd">
<svg version="1.1" xmlns="http://www.w3.org/2000/svg" xmlns:xlink="http://www.w3.org/1999/xlink" x="0px" y="0px"
	 width="521.634px" height="1075.5px" viewBox="0 0 521.634 1075.5" enable-background="new 0 0 521.634 1075.5"
	 xml:space="preserve">
<g id="Soporte">
</g>
<g id="Imagenes">
</g>
<g id="Vectores">
	<rect x="31" y="182.5" fill="#B5B5B5" width="465" height="249"/>
	<rect x="31" y="442.5" fill="#DDDDDD" width="465" height="24"/>
	<rect x="31" y="489.5" fill="#DDDDDD" width="465" height="24"/>
	<rect x="31" y="857.5" fill="#DDDDDD" width="465" height="25"/>
	<rect x="31" y="1022.5" fill="#DDDDDD" width="465" height="25"/>
	<rect x="31" y="545.5" fill="#DDDDDD" width="220" height="25"/>
	<rect x="31" y="699.5" fill="#DDDDDD" width="220" height="25"/>
	<rect x="278" y="545.5" fill="#DDDDDD" width="219" height="25"/>
	<rect x="31" y="809.5" fill="#DDDDDD" width="220" height="24"/>
	<rect x="278" y="809.5" fill="#DDDDDD" width="219" height="24"/>
	<rect x="31" y="978.5" fill="#DDDDDD" width="220" height="24"/>
	<rect x="278" y="978.5" fill="#DDDDDD" width="219" height="24"/>
	<polyline fill="none" stroke="#DDDDDD" stroke-width="3" stroke-miterlimit="10" points="249.5,590.5 249.5,616 29.5,616 
		29.5,590.5 	"/>
	<polyline fill="none" stroke="#DDDDDD" stroke-width="3" stroke-miterlimit="10" points="495.5,590.5 495.5,616 276.5,616 
		276.5,590.5 	"/>
	<polyline fill="none" stroke="#DDDDDD" stroke-width="3" stroke-miterlimit="10" points="249.5,646.5 249.5,671 29.5,671 
		29.5,646.5 	"/>
	<polyline fill="none" stroke="#DDDDDD" stroke-width="3" stroke-miterlimit="10" points="495.5,749.5 495.5,775 29.5,775 
		29.5,749.5 	"/>
	<polyline fill="none" stroke="#DDDDDD" stroke-width="3" stroke-miterlimit="10" points="495.5,646.5 495.5,671 276.5,671 
		276.5,646.5 	"/>
	<rect x="31" y="141.5" fill="#DDDDDD" width="465" height="25"/>
	<rect x="31" y="104.5" fill="#DDDDDD" width="465" height="25"/>
	<rect x="15" y="11.5" fill="#DDDDDD" width="497" height="73"/>
	<path opacity="0.75" fill="#FFFFFF" d="M288.97,304.442l-47.677-27.683c-0.757-0.438-1.721-0.44-2.477-0.004
		c-0.758,0.436-1.256,1.242-1.256,2.115v55.364c0,0.873,0.498,1.681,1.256,2.116c0.377,0.217,0.813,0.326,1.234,0.326
		c0.424,0,0.856-0.111,1.234-0.33l47.682-27.681c0.753-0.438,1.217-1.241,1.217-2.113
		C290.184,305.683,289.724,304.879,288.97,304.442z M242.314,283.113l40.033,23.119l-36.466-19.399v39.879l30.349-16.284
		l-33.916,19.566V283.113z"/>
	<path fill="#B5B5B5" d="M394.535,932.935c-5.415,5.415-11.688,10.594-14.166,8.115c-3.553-3.548-5.74-6.642-13.564-0.352
		c-7.826,6.291-1.816,10.482,1.624,13.924c3.97,3.965,18.761,0.207,33.378-14.411c14.623-14.621,18.384-29.415,14.412-33.386
		c-3.441-3.438-7.63-9.446-13.92-1.62c-6.29,7.823-3.201,10.011,0.352,13.563C405.129,921.248,399.95,927.517,394.535,932.935
		L394.535,932.935z M394.535,932.935"/>
	<path fill="#B5B5B5" d="M113.158,911.924c1.671,0.896,24.794,13.319,25.656,13.78c0.861,0.464,1.977,0.684,3.1,0.684
		c1.122,0,2.238-0.22,3.1-0.684c0.862-0.461,23.984-12.881,25.655-13.78c1.67-0.898,3.251-3.715,0.181-3.715h-57.872
		C109.908,908.209,111.488,911.026,113.158,911.924L113.158,911.924z M171.377,918.766c-1.896,0.989-25.201,13.175-26.363,13.78
		c-1.162,0.607-1.978,0.684-3.1,0.684c-1.123,0-1.938-0.076-3.1-0.684c-1.163-0.605-24.464-12.791-26.364-13.78
		c-1.333-0.699-1.323,0.119-1.323,0.752v25.091c0,1.436,1.911,3.28,3.395,3.28h54.784c1.483,0,3.395-1.845,3.395-3.28v-25.091
		C172.7,918.885,172.713,918.067,171.377,918.766L171.377,918.766z M171.377,918.766"/>
	
		<rect x="14.5" y="11" fill="none" stroke="#DDDDDD" stroke-width="3" stroke-linejoin="round" stroke-miterlimit="10" width="498" height="1057"/>
	<rect x="31" y="40.5" fill="#FFFFFF" width="465" height="33"/>
	<circle fill="#A56060" cx="488.678" cy="23.9" r="7.697"/>
	<circle fill="#B5B5B5" cx="468.582" cy="23.9" r="7.697"/>
	<circle fill="#B5B5B5" cx="448.485" cy="23.9" r="7.697"/>
</g>
<g id="TXT">
</g>
<g id="Guias">
</g>
</svg>
