<?xml version="1.0" encoding="utf-8"?>
<!-- Generator: Adobe Illustrator 16.0.0, SVG Export Plug-In . SVG Version: 6.00 Build 0)  -->
<!DOCTYPE svg PUBLIC "-//W3C//DTD SVG 1.1//EN" "http://www.w3.org/Graphics/SVG/1.1/DTD/svg11.dtd">
<svg version="1.1" xmlns="http://www.w3.org/2000/svg" xmlns:xlink="http://www.w3.org/1999/xlink" x="0px" y="0px"
	 width="196.867px" height="116.591px" viewBox="0 0 196.867 116.591" enable-background="new 0 0 196.867 116.591"
	 xml:space="preserve">
<g id="Soporte">
</g>
<g id="Imagenes">
</g>
<g id="Vectores">
	<g>
		<path fill="#3F3F3F" d="M194.773,112.089L176.72,90.058l-1.31,0.031c0.949-0.603,1.575-1.614,1.575-2.77l-4.957-82.112
			c0-1.843-1.585-3.207-3.54-3.207H27.772c-1.955,0-3.54,1.372-3.54,3.214l-0.426,8.56c-0.215-0.462-0.669-0.952-1.631-0.952
			c-1.853,0-1.962,2.325-1.962,2.325l-3.831,60.637l1.589,5.698c0,0,0,1.4,0.467,1.4s0.653-1.402,0.653-1.402l1.611-5.088
			l-0.542,10.942c0,1.295,0.785,2.422,1.93,2.98l-1.723,0.002l-18.29,22.105c0,0-0.944,1.573,2.124,1.573h188.801
			C193.003,113.994,196.071,113.859,194.773,112.089z M108.485,2.892c0.732,0,1.328,0.595,1.328,1.328
			c0,0.732-0.596,1.327-1.328,1.327c-0.733,0-1.328-0.594-1.328-1.327C107.157,3.486,107.752,2.892,108.485,2.892z M92.555,2.892
			c0.733,0,1.327,0.595,1.327,1.328c0,0.732-0.594,1.327-1.327,1.327s-1.327-0.594-1.327-1.327
			C91.228,3.486,91.821,2.892,92.555,2.892z M87.245,2.892c0.732,0,1.328,0.595,1.328,1.328c0,0.732-0.596,1.327-1.328,1.327
			c-0.733,0-1.328-0.594-1.328-1.327C85.917,3.486,86.512,2.892,87.245,2.892z M27.064,6.552h141.778l4.955,80.646H22.993
			L27.064,6.552z M131.142,110.742H65.828c-0.262,0-0.448-0.249-0.354-0.515l1.947-6.417c0.061-0.187,0.213-0.222,0.409-0.222
			h61.624c0.195,0,0.376-0.074,0.447,0.164l1.594,6.56C131.528,110.554,131.337,110.742,131.142,110.742z"/>
		<g>
			<polygon fill="#C50E14" points="169.624,19 26.437,19 26.937,9 169.013,9 			"/>
			<rect x="59.003" y="27" fill="#B5B5B5" width="29" height="14"/>
			<rect x="59.003" y="78" fill="#B5B5B5" width="77" height="8"/>
			<rect x="59.003" y="22" fill="#DDDDDD" width="29" height="1"/>
			<rect x="59.003" y="24" fill="#DDDDDD" width="29" height="2"/>
			<rect x="59.003" y="42" fill="#DDDDDD" width="29" height="2"/>
			<rect x="59.003" y="48" fill="#DDDDDD" width="18" height="1"/>
			<rect x="59.003" y="45" fill="#DDDDDD" width="4" height="2"/>
			<rect x="59.003" y="49" fill="#DDDDDD" width="18" height="2"/>
			<rect x="59.003" y="51" fill="#DDDDDD" width="18" height="1"/>
			<rect x="59.003" y="54" fill="#DDDDDD" width="18" height="1"/>
			<rect x="59.003" y="55" fill="#DDDDDD" width="18" height="2"/>
			<rect x="59.003" y="57" fill="#DDDDDD" width="18" height="1"/>
			<rect x="78.003" y="48" fill="#B5B5B5" width="10" height="10"/>
			<rect x="59.003" y="63" fill="#DDDDDD" width="18" height="1"/>
			<rect x="59.003" y="61" fill="#DDDDDD" width="4" height="1"/>
			<rect x="59.003" y="64" fill="#DDDDDD" width="18" height="2"/>
			<rect x="59.003" y="66" fill="#DDDDDD" width="18" height="2"/>
			<rect x="59.003" y="70" fill="#DDDDDD" width="18" height="1"/>
			<rect x="59.003" y="71" fill="#DDDDDD" width="18" height="1"/>
			<rect x="59.003" y="74" fill="#DDDDDD" width="18" height="2"/>
			<rect x="78.003" y="63" fill="#B5B5B5" width="10" height="13"/>
			<rect x="91.003" y="43" fill="#DDDDDD" width="8" height="1"/>
			<rect x="91.003" y="44" fill="#DDDDDD" width="8" height="1"/>
			<rect x="91.003" y="46" fill="#DDDDDD" width="8" height="2"/>
			<rect x="91.003" y="22" fill="#DDDDDD" width="19" height="1"/>
			<rect x="91.003" y="24" fill="#DDDDDD" width="19" height="2"/>
			<rect x="91.003" y="27" fill="#DDDDDD" width="19" height="1"/>
			<rect x="101.003" y="43" fill="#B5B5B5" width="8" height="5"/>
			<rect x="91.003" y="51" fill="#DDDDDD" width="8" height="1"/>
			<rect x="91.003" y="53" fill="#DDDDDD" width="8" height="1"/>
			<rect x="91.003" y="55" fill="#DDDDDD" width="8" height="1"/>
			<rect x="101.003" y="51" fill="#B5B5B5" width="8" height="6"/>
			<rect x="90.581" y="61" fill="#DDDDDD" width="8.502" height="0"/>
			<rect x="91.003" y="62" fill="#DDDDDD" width="8" height="1"/>
			<rect x="91.003" y="64" fill="#DDDDDD" width="8" height="1"/>
			<rect x="101.003" y="60" fill="#B5B5B5" width="8" height="6"/>
			<rect x="91.003" y="70" fill="#DDDDDD" width="8" height="1"/>
			<rect x="91.003" y="71" fill="#DDDDDD" width="8" height="1"/>
			<rect x="91.003" y="74" fill="#DDDDDD" width="8" height="1"/>
			<rect x="101.003" y="68" fill="#B5B5B5" width="8" height="8"/>
			<rect x="91.003" y="29" fill="#B5B5B5" width="18" height="10"/>
			<rect x="113.003" y="22" fill="#B5B5B5" width="23" height="20"/>
			<rect x="113.003" y="44" fill="#B5B5B5" width="23" height="33"/>
			<g>
				<g>
					<path fill="#FFFFFF" d="M105.819,11.806c-0.019-0.023,0.01-0.077,0.063-0.128c0.082-0.078,0.637-0.637,0.858-0.859
						c0.057-0.056,0.245-0.169,0.431,0.087c0.224,0.313,0.021,0.465,0,0.474c-0.297,0.117-1.227,0.422-1.227,0.422
						S105.845,11.836,105.819,11.806z"/>
					<rect x="81.472" y="10.667" fill="#FFFFFF" width="1.283" height="4.291"/>
					<path fill="#FFFFFF" d="M86.046,12.996c-0.026-0.544-0.359-1.133-1.59-1.148c-0.914-0.012-1.193,0.446-1.281,0.714
						c-0.02,0.045-0.031,0.095-0.034,0.147c-0.003,0.026-0.004,0.04-0.004,0.04c0,0.258,0.205,0.467,0.458,0.467
						s0.458-0.209,0.458-0.467c0-0.11-0.038-0.209-0.101-0.29l0,0c0,0-0.172-0.225,0.392-0.177c0.453,0.039,0.511,0.524,0.515,0.714
						l0,0v0.573c-0.203-0.168-0.488-0.273-0.806-0.273c-0.614,0-1.111,0.388-1.111,0.869s0.497,0.869,1.111,0.869
						c0.317,0,0.603-0.105,0.806-0.273v0.198h1.189v-1.962H86.046z M84.053,14.776c-0.339,0-0.612-0.256-0.612-0.572
						c0-0.314,0.273-0.571,0.612-0.571s0.613,0.256,0.613,0.571C84.666,14.52,84.392,14.776,84.053,14.776z"/>
					<path fill="#FFFFFF" d="M89.831,12.007c-0.99,0-1.791,0.708-1.791,1.578c0,0.872,0.801,1.578,1.791,1.578
						c0.989,0,1.792-0.706,1.792-1.578C91.623,12.715,90.82,12.007,89.831,12.007z M89.831,14.819c-0.451,0-0.814-0.553-0.814-1.234
						s0.363-1.233,0.814-1.233s0.815,0.552,0.815,1.233S90.282,14.819,89.831,14.819z"/>
					<path fill="#FFFFFF" d="M106.444,12.007c-0.989,0-1.791,0.708-1.791,1.578c0,0.872,0.802,1.578,1.791,1.578
						s1.791-0.706,1.791-1.578C108.235,12.715,107.434,12.007,106.444,12.007z M106.444,14.819c-0.45,0-0.816-0.553-0.816-1.234
						s0.366-1.233,0.816-1.233c0.449,0,0.815,0.552,0.815,1.233S106.894,14.819,106.444,14.819z"/>
					<path fill="#FFFFFF" d="M94.45,12.051c-0.416,0-0.797,0.125-1.101,0.331v-0.502H91.87v5.696h1.479v-2.745
						c0.304,0.207,0.685,0.332,1.101,0.332c0.986,0,1.786-0.697,1.786-1.556C96.236,12.747,95.437,12.051,94.45,12.051z
						 M93.897,14.776c-0.207,0-0.395-0.087-0.548-0.229v-1.775c0.153-0.141,0.341-0.228,0.548-0.228c0.504,0,0.912,0.5,0.912,1.115
						C94.81,14.276,94.401,14.776,93.897,14.776z"/>
					<rect x="96.419" y="11.912" fill="#FFFFFF" width="1.383" height="3.014"/>
					<path fill="#FFFFFF" d="M97.819,10.978c0.128,0.31-0.178,0.543-0.587,0.692c-0.462,0.169-0.825,0.05-0.884-0.141
						c-0.054-0.174,0.133-0.462,0.56-0.652C97.306,10.701,97.709,10.712,97.819,10.978z"/>
					<rect x="102.984" y="11.912" fill="#FFFFFF" width="1.384" height="3.014"/>
					<path fill="#FFFFFF" d="M104.385,10.978c0.128,0.31-0.178,0.543-0.586,0.692c-0.462,0.169-0.825,0.05-0.884-0.141
						c-0.054-0.174,0.133-0.462,0.56-0.652C103.872,10.701,104.274,10.712,104.385,10.978z"/>
					<path fill="#FFFFFF" d="M102.339,12.742c-0.045-0.562-0.607-0.595-1.285-0.605c-0.568-0.008-1.211,0.288-1.471,0.42v-0.645
						H98.2v3.014h1.383V13.07c0.15-0.149,0.43-0.379,0.773-0.418c0.525-0.059,0.594,0.423,0.6,0.607v1.667h1.385v-2.184H102.339z"/>
					<path fill="#FFFFFF" d="M112.718,12.742c-0.044-0.562-0.606-0.595-1.285-0.605c-0.566-0.008-1.211,0.288-1.47,0.42v-0.645
						h-1.384v3.014h1.384V13.07c0.149-0.149,0.429-0.379,0.772-0.418c0.525-0.059,0.595,0.423,0.602,0.607v1.667h1.383v-2.184
						H112.718z"/>
				</g>
			</g>
		</g>
	</g>
</g>
<g id="TXT">
</g>
<g id="Guias">
</g>
</svg>
