<?xml version="1.0" encoding="utf-8"?>
<!-- Generator: Adobe Illustrator 16.0.0, SVG Export Plug-In . SVG Version: 6.00 Build 0)  -->
<!DOCTYPE svg PUBLIC "-//W3C//DTD SVG 1.1//EN" "http://www.w3.org/Graphics/SVG/1.1/DTD/svg11.dtd">
<svg version="1.1" xmlns="http://www.w3.org/2000/svg" xmlns:xlink="http://www.w3.org/1999/xlink" x="0px" y="0px"
	 width="84.151px" height="18.488px" viewBox="0 0 84.151 18.488" enable-background="new 0 0 84.151 18.488" xml:space="preserve">
<g id="Soporte">
</g>
<g id="Imagenes">
</g>
<g id="Vectores">
	<g>
		<g>
			<path fill="#333333" d="M56.312,17.357h-6.387c-2.443,0-4.443-1.999-4.443-4.442V6.108c0-2.443,2-4.443,4.443-4.443h6.387
				c2.444,0,4.443,2,4.443,4.443v6.806C60.755,15.358,58.756,17.357,56.312,17.357 M56.312,16.184c0.868,0,1.688-0.342,2.309-0.962
				c0.619-0.62,0.961-1.439,0.961-2.307V6.108c0-0.868-0.342-1.688-0.961-2.308c-0.621-0.619-1.44-0.96-2.309-0.96h-6.387
				c-0.868,0-1.688,0.342-2.309,0.96c-0.619,0.62-0.96,1.44-0.96,2.308v6.806c0,0.868,0.341,1.688,0.96,2.307
				c0.62,0.62,1.44,0.962,2.309,0.962H56.312z"/>
			<path fill="#333333" d="M57.348,9.452c0,2.322-1.883,4.206-4.206,4.206c-2.322,0-4.205-1.883-4.205-4.206
				c0-2.324,1.883-4.207,4.205-4.207C55.465,5.245,57.348,7.128,57.348,9.452 M53.122,6.699c-1.521,0-2.755,1.233-2.755,2.755
				s1.233,2.755,2.755,2.755s2.754-1.233,2.754-2.755S54.644,6.699,53.122,6.699"/>
			<path fill="#333333" d="M58.411,5.18c0,0.549-0.446,0.996-0.996,0.996S56.42,5.729,56.42,5.18c0-0.55,0.445-0.997,0.995-0.997
				S58.411,4.63,58.411,5.18"/>
		</g>
	</g>
	<path fill="#333333" d="M15.054,1.821H4.9c-1.603,0-2.907,1.304-2.907,2.907v10.155c0,1.602,1.305,2.907,2.907,2.907h4.658v-6.604
		H8.193V8.91h1.365V7.543c0-1.857,0.771-2.961,2.961-2.961h1.823v2.276h-1.139c-0.854,0-0.91,0.318-0.91,0.912L12.29,8.91h2.064
		l-0.24,2.276H12.29v6.604h2.764c1.604,0,2.908-1.305,2.908-2.907V4.728C17.962,3.125,16.657,1.821,15.054,1.821z"/>
	<path fill="#333333" d="M37.03,1.486H26.876c-1.603,0-2.907,1.304-2.907,2.907v10.155c0,1.603,1.305,2.907,2.907,2.907H37.03
		c1.603,0,2.908-1.305,2.908-2.907V4.393C39.938,2.79,38.633,1.486,37.03,1.486z M36.218,7.283c0.004,0.095,0.006,0.19,0.006,0.286
		c0,2.907-2.212,6.259-6.259,6.259c-1.243,0-2.399-0.365-3.373-0.988c0.173,0.02,0.348,0.03,0.524,0.03
		c1.031,0,1.98-0.352,2.733-0.94c-0.964-0.019-1.776-0.655-2.056-1.529c0.135,0.025,0.272,0.038,0.414,0.038
		c0.201,0,0.395-0.025,0.58-0.076c-1.006-0.202-1.766-1.09-1.766-2.157c0-0.008,0-0.019,0-0.027
		c0.297,0.165,0.636,0.263,0.996,0.275c-0.59-0.395-0.978-1.068-0.978-1.831c0-0.402,0.108-0.781,0.298-1.106
		c1.084,1.331,2.705,2.207,4.534,2.298c-0.038-0.161-0.058-0.328-0.058-0.501c0-1.215,0.985-2.2,2.2-2.2
		c0.633,0,1.205,0.269,1.606,0.696c0.501-0.098,0.972-0.282,1.397-0.535c-0.165,0.515-0.514,0.946-0.969,1.217
		c0.445-0.052,0.869-0.171,1.265-0.346C37.02,6.585,36.646,6.973,36.218,7.283z"/>
	<path fill="#333333" d="M80.299,1.507H70.146c-1.604,0-2.908,1.304-2.908,2.907v10.155c0,1.603,1.305,2.906,2.908,2.906h10.153
		c1.603,0,2.908-1.304,2.908-2.906V4.414C83.207,2.811,81.901,1.507,80.299,1.507z M73.229,13.476V5.504l5.999,3.987L73.229,13.476z
		"/>
</g>
<g id="TXT">
</g>
<g id="Guias">
</g>
</svg>
