<?xml version="1.0" encoding="utf-8"?>
<!-- Generator: Adobe Illustrator 16.0.0, SVG Export Plug-In . SVG Version: 6.00 Build 0)  -->
<!DOCTYPE svg PUBLIC "-//W3C//DTD SVG 1.1//EN" "http://www.w3.org/Graphics/SVG/1.1/DTD/svg11.dtd">
<svg version="1.1" xmlns="http://www.w3.org/2000/svg" xmlns:xlink="http://www.w3.org/1999/xlink" x="0px" y="0px"
	 width="64.607px" height="92.017px" viewBox="0 0 64.607 92.017" enable-background="new 0 0 64.607 92.017" xml:space="preserve">
<g id="Soporte">
</g>
<g id="Imagenes">
</g>
<g id="Vectores">
	<g>
		<path fill="#3F3F3F" d="M60.244,1.804H4.601c-1.553,0-2.795,1.189-2.795,2.746v82.608c0,1.557,1.242,2.836,2.795,2.836h55.644
			c1.554,0,2.827-1.279,2.827-2.836V4.55C63.071,2.993,61.798,1.804,60.244,1.804z M32.39,4.315c0.408,0,0.74,0.331,0.74,0.74
			s-0.332,0.741-0.74,0.741c-0.409,0-0.741-0.332-0.741-0.741S31.98,4.315,32.39,4.315z M32.371,88.506
			c-0.992,0-1.797-0.805-1.797-1.797c0-0.992,0.805-1.797,1.797-1.797c0.993,0,1.797,0.805,1.797,1.797
			C34.168,87.701,33.364,88.506,32.371,88.506z M60.469,83.36H4.017V8.177h56.452V83.36z"/>
		<g>
			<rect x="7.003" y="14" fill="#DDDDDD" width="51" height="3"/>
			<rect x="7.003" y="19" fill="#DDDDDD" width="51" height="2"/>
			<rect x="7.003" y="24" fill="#DDDDDD" width="51" height="3"/>
			<rect x="7.003" y="59" fill="#DDDDDD" width="51" height="3"/>
			<rect x="7.003" y="29" fill="#B5B5B5" width="51" height="28"/>
			<rect x="7.003" y="68" fill="#DDDDDD" width="28" height="2"/>
			<rect x="7.003" y="65" fill="#DDDDDD" width="7" height="2"/>
			<rect x="7.003" y="71" fill="#DDDDDD" width="28" height="3"/>
			<rect x="7.003" y="74" fill="#DDDDDD" width="28" height="3"/>
			<rect x="7.003" y="78" fill="#DDDDDD" width="28" height="3"/>
			<rect x="38.003" y="68" fill="#B5B5B5" width="19" height="14"/>
			<rect x="4.003" y="9" fill="#C50E14" width="9" height="4"/>
			<g>
				<rect x="6.928" y="9.85" fill="#FFFFFF" width="1.95" height="0.459"/>
			</g>
			<g>
				<rect x="6.928" y="10.85" fill="#FFFFFF" width="1.95" height="0.459"/>
			</g>
			<g>
				<rect x="6.928" y="11.85" fill="#FFFFFF" width="1.95" height="0.459"/>
			</g>
			<g>
				<path fill="#700810" d="M10.199,10.312c-0.013-0.016,0.006-0.05,0.041-0.084c0.054-0.051,0.42-0.419,0.565-0.565
					c0.037-0.037,0.161-0.112,0.283,0.058c0.148,0.205,0.016,0.306,0,0.312c-0.195,0.077-0.809,0.277-0.809,0.277
					S10.216,10.333,10.199,10.312z"/>
				<path fill="#700810" d="M10.61,10.445c-0.652,0-1.18,0.465-1.18,1.039s0.527,1.04,1.18,1.04s1.181-0.466,1.181-1.04
					S11.263,10.445,10.61,10.445z M10.61,12.298c-0.297,0-0.537-0.364-0.537-0.813c0-0.449,0.24-0.813,0.537-0.813
					s0.537,0.364,0.537,0.813C11.147,11.934,10.907,12.298,10.61,12.298z"/>
			</g>
		</g>
	</g>
</g>
<g id="TXT">
</g>
<g id="Guias">
</g>
</svg>
